<svg width="14" height="14" viewBox="0 0 14 14" fill="none" xmlns="http://www.w3.org/2000/svg"><path d="M12.0586 2.87109L9.38164 0.191406C9.25859 0.0683594 9.0918 0 8.9168 0H8.75V3.5H12.25V3.3332C12.25 3.16094 12.1816 2.99414 12.0586 2.87109ZM5.26094 9.1875C4.77148 9.1875 4.375 9.51836 4.375 9.92578C4.375 10.3359 4.77422 10.6641 5.26367 10.6641C5.75312 10.6641 6.14961 10.3332 6.14961 9.92578C6.14961 9.51836 5.75039 9.1875 5.26094 9.1875ZM7.875 3.71875V0H6.13594V0.875H5.26094V0H2.40625C2.04258 0 1.75 0.292578 1.75 0.65625V13.3438C1.75 13.7074 2.04258 14 2.40625 14H11.5938C11.9574 14 12.25 13.7074 12.25 13.3438V4.375H8.53125C8.17031 4.375 7.875 4.07969 7.875 3.71875ZM4.37227 0.875H5.24727V1.75H4.37227V0.875ZM5.25547 11.375C4.34766 11.375 3.66953 10.5438 3.85 9.65508L4.38594 7V6.125H5.26094V5.25H4.38594V4.375H5.26094V3.5H4.38594V2.625H5.26094V1.75H6.13594V2.625H5.26094V3.5H6.13594V4.375H5.26094V5.25H6.13594V6.125H5.26094V7H5.86523C6.02109 7 6.15781 7.11211 6.18789 7.26523L6.66094 9.66328C6.83594 10.5492 6.15781 11.375 5.25547 11.375Z" fill="white"/><path fill-rule="evenodd" clip-rule="evenodd" d="M2.40625 0H5.26094V0.875H6.13594V0H7.875V3.71875C7.875 4.07969 8.17031 4.375 8.53125 4.375H12.25V13.3438C12.25 13.7074 11.9574 14 11.5938 14H2.40625C2.04258 14 1.75 13.7074 1.75 13.3438V0.65625C1.75 0.292578 2.04258 0 2.40625 0ZM12.25 3.5H8.75V0H8.9168C9.0918 0 9.25859 0.0683594 9.38164 0.191406L12.0586 2.87109C12.1816 2.99414 12.25 3.16094 12.25 3.3332V3.5ZM5.24727 0.875H4.37227V1.75H5.24727V0.875ZM5.26094 1.75V2.625H4.38594V3.5H5.26094V4.375H4.38594V5.25H5.26094V6.125H4.38594V7L3.85 9.65508C3.66953 10.5438 4.34766 11.375 5.25547 11.375C6.15781 11.375 6.83594 10.5492 6.66094 9.66328L6.18789 7.26523C6.15781 7.11211 6.02109 7 5.86523 7H5.26094V6.125H6.13594V5.25H5.26094V4.375H6.13594V3.5H5.26094V2.625H6.13594V1.75H5.26094ZM5.26094 9.1875C4.77148 9.1875 4.375 9.51836 4.375 9.92578C4.375 10.3359 4.77422 10.6641 5.26367 10.6641C5.75312 10.6641 6.14961 10.3332 6.14961 9.92578C6.14961 9.51836 5.75039 9.1875 5.26094 9.1875Z" fill="white"/></svg>
