<svg width="14" height="14" viewBox="0 0 14 14" fill="none" xmlns="http://www.w3.org/2000/svg"><path d="M12.8627 0.0404779L4.11301 2.62434C3.9354 2.68013 3.78021 2.79111 3.67001 2.94116C3.5598 3.0912 3.50031 3.27248 3.5002 3.45865V10.607C3.21366 10.5374 2.92001 10.5015 2.62515 10.4998C1.17585 10.4998 0 11.2835 0 12.2499C0 13.2163 1.17585 14 2.62515 14C4.07446 14 5.25031 13.2163 5.25031 12.2499V5.85984L12.2507 3.80894V8.85716C11.9642 8.78737 11.6705 8.7513 11.3757 8.74969C9.92636 8.74969 8.75051 9.53341 8.75051 10.4998C8.75051 11.4662 9.92636 12.2499 11.3757 12.2499C12.825 12.2499 14.0008 11.4665 14.0008 10.4998V0.874237C14.0007 0.736865 13.9682 0.601453 13.906 0.47896C13.8439 0.356467 13.7537 0.250335 13.6429 0.169152C13.5321 0.0879697 13.4037 0.0340181 13.2682 0.0116637C13.1326 -0.0106906 12.9937 -0.000819557 12.8627 0.0404779Z" fill="white"/></svg>
