<svg width="14" height="14" viewBox="0 0 14 14" fill="none" xmlns="http://www.w3.org/2000/svg"><path d="M7.875 3.71875V0H2.40625C2.04258 0 1.75 0.292578 1.75 0.65625V13.3438C1.75 13.7074 2.04258 14 2.40625 14H11.5938C11.9574 14 12.25 13.7074 12.25 13.3438V4.375H8.53125C8.17031 4.375 7.875 4.07969 7.875 3.71875ZM12.25 3.3332V3.5H8.75V0H8.9168C9.0918 0 9.25859 0.0683594 9.38164 0.191406L12.0586 2.87109C12.1816 2.99414 12.25 3.16094 12.25 3.3332Z" fill="white"/><path fill-rule="evenodd" clip-rule="evenodd" d="M2.40625 0H7.875V3.71875C7.875 4.07969 8.17031 4.375 8.53125 4.375H12.25V13.3438C12.25 13.7074 11.9574 14 11.5938 14H2.40625C2.04258 14 1.75 13.7074 1.75 13.3438V0.65625C1.75 0.292578 2.04258 0 2.40625 0ZM8.75 3.5V0H8.9168C9.0918 0 9.25859 0.0683594 9.38164 0.191406L12.0586 2.87109C12.1816 2.99414 12.25 3.16094 12.25 3.3332V3.5H8.75Z" fill="currentColor"/></svg>
