<svg width="14" height="14" viewBox="0 0 14 14" fill="none" xmlns="http://www.w3.org/2000/svg"><path d="M12.25 3.33432V3.5H8.75V0H8.91568C9.08972 9.09989e-07 9.25663 0.0691366 9.3797 0.192199L12.0578 2.87027C12.1808 2.99335 12.25 3.16027 12.25 3.33432ZM8.53125 4.375C8.17031 4.375 7.875 4.07969 7.875 3.71875V0H2.40625C2.04381 0 1.75 0.293809 1.75 0.65625V13.3438C1.75 13.7062 2.04381 14 2.40625 14H11.5938C11.9562 14 12.25 13.7062 12.25 13.3438V4.375H8.53125ZM4.8274 4.8125C5.55228 4.8125 6.1399 5.40012 6.1399 6.125C6.1399 6.84988 5.55228 7.4375 4.8274 7.4375C4.10252 7.4375 3.5149 6.84988 3.5149 6.125C3.5149 5.40012 4.10255 4.8125 4.8274 4.8125ZM10.5149 11.375H3.5149L3.52816 10.0492L4.60865 8.96875C4.73678 8.84062 4.93128 8.85388 5.05941 8.98201L6.1399 10.0625L8.97039 7.23201C9.09852 7.10388 9.30628 7.10388 9.43444 7.23201L10.5149 8.3125V11.375Z" fill="white"/><path fill-rule="evenodd" clip-rule="evenodd" d="M2.40625 0H7.875V3.71875C7.875 4.07969 8.17031 4.375 8.53125 4.375H12.25V13.3438C12.25 13.7062 11.9562 14 11.5938 14H2.40625C2.04381 14 1.75 13.7062 1.75 13.3438V0.65625C1.75 0.293809 2.04381 0 2.40625 0ZM8.75 3.5V0H8.91568C9.08972 9.09989e-07 9.25663 0.0691366 9.3797 0.192199L12.0578 2.87027C12.1808 2.99335 12.25 3.16027 12.25 3.33432V3.5H8.75ZM4.8274 4.8125C5.55228 4.8125 6.1399 5.40012 6.1399 6.125C6.1399 6.84988 5.55228 7.4375 4.8274 7.4375C4.10252 7.4375 3.5149 6.84988 3.5149 6.125C3.5149 5.40012 4.10255 4.8125 4.8274 4.8125ZM3.5149 11.375H10.5149V8.3125L9.43444 7.23201C9.30628 7.10388 9.09852 7.10388 8.97039 7.23201L6.1399 10.0625L5.05941 8.98201C4.93128 8.85388 4.73678 8.84062 4.60865 8.96875L3.52816 10.0492L3.5149 11.375Z" fill="white"/></svg>
