<svg width="14" height="14" viewBox="0 0 14 14" fill="none" xmlns="http://www.w3.org/2000/svg"><path d="M7 5.03125C8.08828 5.03125 8.96875 5.91172 8.96875 7C8.96875 8.08828 8.08828 8.96875 7 8.96875C5.91172 8.96875 5.03125 8.08828 5.03125 7C5.03125 5.91172 5.91172 5.03125 7 5.03125ZM5.03125 2.1875C5.03125 3.27578 5.91172 4.15625 7 4.15625C8.08828 4.15625 8.96875 3.27578 8.96875 2.1875C8.96875 1.09922 8.08828 0.21875 7 0.21875C5.91172 0.21875 5.03125 1.09922 5.03125 2.1875ZM5.03125 11.8125C5.03125 12.9008 5.91172 13.7812 7 13.7812C8.08828 13.7812 8.96875 12.9008 8.96875 11.8125C8.96875 10.7242 8.08828 9.84375 7 9.84375C5.91172 9.84375 5.03125 10.7242 5.03125 11.8125Z" fill="white"/><path fill-rule="evenodd" clip-rule="evenodd" d="M7 5.03125C8.08828 5.03125 8.96875 5.91172 8.96875 7C8.96875 8.08828 8.08828 8.96875 7 8.96875C5.91172 8.96875 5.03125 8.08828 5.03125 7C5.03125 5.91172 5.91172 5.03125 7 5.03125ZM5.03125 2.1875C5.03125 3.27578 5.91172 4.15625 7 4.15625C8.08828 4.15625 8.96875 3.27578 8.96875 2.1875C8.96875 1.09922 8.08828 0.21875 7 0.21875C5.91172 0.21875 5.03125 1.09922 5.03125 2.1875ZM5.03125 11.8125C5.03125 12.9008 5.91172 13.7812 7 13.7812C8.08828 13.7812 8.96875 12.9008 8.96875 11.8125C8.96875 10.7242 8.08828 9.84375 7 9.84375C5.91172 9.84375 5.03125 10.7242 5.03125 11.8125Z" fill="white"/></svg>
