<svg width="14" height="14" viewBox="0 0 14 14" fill="none" xmlns="http://www.w3.org/2000/svg"><path d="M6.125 0.875C6.125 0.642936 6.21719 0.420376 6.38128 0.256282C6.54538 0.0921874 6.76794 0 7 0C7.23206 0 7.45462 0.0921874 7.61872 0.256282C7.78281 0.420376 7.875 0.642936 7.875 0.875V7.13825L10.7126 4.30062L11.9499 5.53788L7 10.4878L2.05012 5.53875L3.28737 4.3015L6.125 7.13825V0.875Z" fill="white"/><path d="M0 8.75H1.75V12.25H12.25V8.75H14V12.25C14 12.7141 13.8156 13.1592 13.4874 13.4874C13.1592 13.8156 12.7141 14 12.25 14H1.75C1.28587 14 0.840752 13.8156 0.512563 13.4874C0.184374 13.1592 0 12.7141 0 12.25V8.75Z" fill="white"/></svg>
